<?xml version="1.0" encoding="utf-8"?>
<!-- Generator: Adobe Illustrator 27.9.0, SVG Export Plug-In . SVG Version: 6.00 Build 0)  -->
<svg version="1.1" id="Laag_1" xmlns="http://www.w3.org/2000/svg" xmlns:xlink="http://www.w3.org/1999/xlink" x="0px" y="0px"
	 viewBox="0 0 24 24" style="enable-background:new 0 0 24 24;" xml:space="preserve">
<path d="M4,18c-0.3,0-0.5-0.1-0.7-0.3C3.1,17.5,3,17.3,3,17s0.1-0.5,0.3-0.7C3.5,16.1,3.7,16,4,16h16c0.3,0,0.5,0.1,0.7,0.3
	c0.2,0.2,0.3,0.4,0.3,0.7s-0.1,0.5-0.3,0.7C20.5,17.9,20.3,18,20,18H4z M3.7,13c-0.2,0-0.3-0.1-0.5-0.3C3.1,12.5,3,12.3,3,12
	s0.1-0.5,0.2-0.7C3.3,11.1,3.5,11,3.7,11h10.5c0.2,0,0.3,0.1,0.5,0.3c0.1,0.2,0.2,0.4,0.2,0.7s-0.1,0.5-0.2,0.7
	c-0.1,0.2-0.3,0.3-0.5,0.3H3.7z M4,8C3.7,8,3.5,7.9,3.3,7.7S3,7.3,3,7s0.1-0.5,0.3-0.7C3.5,6.1,3.7,6,4,6h16c0.3,0,0.5,0.1,0.7,0.3
	C20.9,6.5,21,6.7,21,7s-0.1,0.5-0.3,0.7C20.5,7.9,20.3,8,20,8H4z"/>
</svg>
