<?xml version="1.0" encoding="utf-8"?>
<!-- Generator: Adobe Illustrator 27.9.0, SVG Export Plug-In . SVG Version: 6.00 Build 0)  -->
<svg version="1.1" id="Laag_1" xmlns="http://www.w3.org/2000/svg" xmlns:xlink="http://www.w3.org/1999/xlink" x="0px" y="0px"
	 viewBox="0 0 24 24" style="enable-background:new 0 0 24 24;" xml:space="preserve">
<path d="M12,15.6c-0.6-0.2-1.2-0.6-1.7-0.9l-5.6,5.6c-0.2,0.2-0.4,0.3-0.7,0.3s-0.5-0.1-0.7-0.3C3.1,20.1,3,19.9,3,19.6
	c0-0.3,0.1-0.5,0.3-0.7l5.6-5.6c-0.4-0.5-0.7-1.1-0.9-1.7c-0.2-0.7-0.3-1.3-0.3-2.1c0-1.8,0.6-3.4,1.9-4.6S12.3,3,14.1,3
	s3.4,0.6,4.6,1.9s1.9,2.8,1.9,4.6c0,1.8-0.6,3.4-1.9,4.6S15.9,16,14.1,16C13.3,16,12.7,15.9,12,15.6z M17.3,12.7
	c0.9-0.9,1.3-1.9,1.3-3.2s-0.4-2.3-1.3-3.2S15.3,5,14.1,5s-2.3,0.4-3.2,1.3S9.6,8.2,9.6,9.5s0.4,2.3,1.3,3.2s1.9,1.3,3.2,1.3
	S16.4,13.6,17.3,12.7z"/>
</svg>
